<?xml version="1.0" encoding="UTF-8" standalone="no"?>
<!-- Created with Inkscape (http://www.inkscape.org/) -->

<svg
   xmlns:dc="http://purl.org/dc/elements/1.1/"
   xmlns:cc="http://creativecommons.org/ns#"
   xmlns:rdf="http://www.w3.org/1999/02/22-rdf-syntax-ns#"
   xmlns:svg="http://www.w3.org/2000/svg"
   xmlns="http://www.w3.org/2000/svg"
   xmlns:xlink="http://www.w3.org/1999/xlink"
   xmlns:sodipodi="http://sodipodi.sourceforge.net/DTD/sodipodi-0.dtd"
   xmlns:inkscape="http://www.inkscape.org/namespaces/inkscape"
   id="svg2929"
   sodipodi:docname="simpleburger-j4p4n.svg"
   viewBox="0 0 1030 809.99991"
   sodipodi:version="0.32"
   version="1.0"
   inkscape:output_extension="org.inkscape.output.svg.inkscape"
   inkscape:version="0.91 r13725"
   width="1030"
   height="810">
  <defs
     id="defs4169">
    <linearGradient
       inkscape:collect="always"
       id="linearGradient10300">
      <stop
         style="stop-color:#e5d4c0;stop-opacity:1"
         offset="0"
         id="stop10302" />
      <stop
         style="stop-color:#d5bfa4;stop-opacity:0;"
         offset="1"
         id="stop10304" />
    </linearGradient>
    <linearGradient
       inkscape:collect="always"
       id="linearGradient10290">
      <stop
         style="stop-color:#d1c0ac;stop-opacity:1;"
         offset="0"
         id="stop10292" />
      <stop
         style="stop-color:#d1c0ac;stop-opacity:0;"
         offset="1"
         id="stop10294" />
    </linearGradient>
    <linearGradient
       inkscape:collect="always"
       xlink:href="#linearGradient10290"
       id="linearGradient10296"
       x1="-2597.8713"
       y1="-1369.608"
       x2="-2597.6926"
       y2="-1408.1775"
       gradientUnits="userSpaceOnUse"
       gradientTransform="matrix(1.7999712,0,0,2.0964347,1861.7415,1688.8349)" />
    <linearGradient
       inkscape:collect="always"
       xlink:href="#linearGradient10300"
       id="linearGradient10306"
       x1="-2576.9795"
       y1="-1263.9067"
       x2="-2580.0146"
       y2="-1164.2692"
       gradientUnits="userSpaceOnUse"
       gradientTransform="matrix(1.7999712,0,0,2.0964347,1861.7415,1688.8349)" />
  </defs>
  <sodipodi:namedview
     id="base"
     bordercolor="#666666"
     inkscape:pageshadow="2"
     inkscape:window-y="1"
     pagecolor="#ffffff"
     inkscape:window-height="1035"
     inkscape:window-maximized="1"
     inkscape:zoom="0.34482552"
     inkscape:window-x="4"
     showgrid="false"
     borderopacity="1.0"
     inkscape:current-layer="g10308"
     inkscape:cx="518.74287"
     inkscape:cy="403.72748"
     inkscape:window-width="1916"
     inkscape:pageopacity="0.0"
     inkscape:document-units="px"
     fit-margin-top="0"
     fit-margin-left="0"
     fit-margin-right="0"
     fit-margin-bottom="0"
     showguides="true"
     inkscape:guide-bbox="true" />
  <g
     id="layer1"
     inkscape:label="Layer 1"
     inkscape:groupmode="layer"
     transform="translate(3335.9895,1554.0967)">
    <g
       id="g10426"
       transform="translate(10,-6)">
      <g
         id="g10308">
        <g
           id="g10461">
          <path
             sodipodi:nodetypes="cccccccccccccc"
             inkscape:connector-curvature="0"
             id="path10206"
             d="m -3272.6785,-977.36581 2.8928,84.2274 17.3558,33.69118 63.6387,50.53644 c 0,0 101.2432,33.69096 115.7065,33.69096 170.7001,40.48865 332.6633,27.12472 503.3234,6.73815 92.2356,-31.02325 169.4691,-23.46476 205.3791,-128.0257 l 8.678,-87.59659 -133.0625,-90.96553 -323.9783,-10.1074 -309.5149,0 -75.2093,47.1673 -43.3899,37.0602 z"
             style="fill:#bfa07b;fill-opacity:1;fill-rule:evenodd;stroke:#000000;stroke-width:9.71277809;stroke-linecap:round;stroke-linejoin:round;stroke-miterlimit:4;stroke-dasharray:none;stroke-opacity:1" />
          <path
             style="opacity:0.353;fill:url(#linearGradient10306);fill-opacity:1;fill-rule:evenodd;stroke:#000000;stroke-width:9.71277809;stroke-linecap:round;stroke-linejoin:round;stroke-miterlimit:4;stroke-dasharray:none;stroke-opacity:1"
             d="m -3272.6785,-977.36581 2.8928,84.2274 17.3558,33.69118 63.6387,50.53644 c 0,0 101.2432,33.69096 115.7065,33.69096 170.7001,40.48865 332.6633,27.12472 503.3234,6.73815 92.2356,-31.02325 169.4691,-23.46476 205.3791,-128.0257 l 8.678,-87.59659 -133.0625,-90.96553 -323.9783,-10.1074 -309.5149,0 -75.2093,47.1673 -43.3899,37.0602 z"
             id="path10298"
             inkscape:connector-curvature="0"
             sodipodi:nodetypes="cccccccccccccc" />
          <path
             sodipodi:nodetypes="cccccccccccccccscccccc"
             inkscape:connector-curvature="0"
             id="path10208"
             d="m -3246.6446,-1051.4859 -26.0339,37.0602 2.8928,30.32173 34.7119,43.7983 40.4972,26.95281 c 47.2503,26.32695 89.1065,26.6281 133.0625,37.06014 l 208.977,18.76951 c 152.8748,26.75236 285.1162,-32.54731 433.1944,-79.41349 l 31.8192,-30.32178 20.2486,-26.95282 0,-26.9528 -34.7119,-64.0128 -57.8533,-30.3219 -167.7744,-33.691 -225.6278,16.8455 c 0,0 -83.8872,-13.4763 -101.2432,-6.7382 -17.356,6.7382 -101.2432,-10.1073 -101.2432,-10.1073 l -127.2772,6.7381 -37.6046,16.8455 -28.9266,40.4293 0,43.7983 z"
             style="fill:#775c3c;fill-opacity:1;fill-rule:evenodd;stroke:#000000;stroke-width:9.71277809;stroke-linecap:round;stroke-linejoin:round;stroke-miterlimit:4;stroke-dasharray:none;stroke-opacity:1" />
          <path
             inkscape:connector-curvature="0"
             id="path10210"
             d="m -3252.4299,-1091.915 -54.9605,114.54919 326.8708,20.21466 141.7406,26.95281 133.0625,-229.09876 -523.5721,-16.8455 z"
             style="fill:#dc8e5b;fill-opacity:1;fill-rule:evenodd;stroke:#000000;stroke-width:9.71277809;stroke-linecap:round;stroke-linejoin:round;stroke-miterlimit:4;stroke-dasharray:none;stroke-opacity:1" />
          <path
             inkscape:connector-curvature="0"
             id="path10212"
             d="m -2864.8129,-1102.0223 101.2431,185.30026 283.4811,-30.32178 147.5258,-128.02568 -104.1359,-158.3477 z"
             style="fill:#dc8e5b;fill-opacity:1;fill-rule:evenodd;stroke:#000000;stroke-width:9.71277809;stroke-linecap:round;stroke-linejoin:round;stroke-miterlimit:4;stroke-dasharray:none;stroke-opacity:1" />
          <path
             inkscape:connector-curvature="0"
             id="path10230"
             d="m -2838.779,-1048.1167 c -9.3239,0.4834 -19.9662,16.2648 -21.3612,21.1052 0.9826,14.147 3.1887,36.71068 11.1181,36.22305 -0.059,10.88281 10.3844,11.34779 8.622,21.07777 11.3391,13.40691 17.8595,21.81885 37.4592,22.02283 26.6918,0.47107 53.4948,1.66478 80.1466,0.10902 20.8934,0.0294 27.197,-28.39013 33.4204,-41.1528 0.3757,-13.56017 -16.1419,-25.22007 -24.2906,-37.13627 -6.3245,-10.0524 -16.6502,-11.9025 -27.427,-22.8058 7.441,4.2645 -5.8238,-4.0258 -10.9743,-0.6271 -5.1871,-6.8792 -28.928,-4.3536 -41.7957,-6.1224 -17.7462,-2.2235 -34.7126,3.9962 -52.0308,7.4644 -10.0732,-9.0191 4.9078,-2.1252 7.1133,-0.1594 z"
             style="fill:#89a02c;fill-rule:evenodd;stroke:#000000;stroke-width:9.71277809;stroke-linecap:round;stroke-linejoin:round;stroke-miterlimit:4;stroke-dasharray:none;stroke-opacity:1" />
          <path
             inkscape:connector-curvature="0"
             id="path10239"
             d="m -3105.1613,-1027.4427 -11.5708,-37.0604 -20.2484,-16.8455 -11.5707,20.2149 -17.3559,0 -14.4635,16.8455 14.4635,20.2147 14.4631,0 -11.5706,10.1071 -28.9266,26.95281 -14.4635,-6.73815 -11.5705,6.73815 17.356,16.84548 26.0339,0 23.1413,33.69097 2.8928,23.58384 c 0,0 5.7852,0 17.3558,-10.10733 11.5708,-10.10733 20.2488,-26.95281 20.2488,-26.95281 l 8.6778,-13.47652 -5.7853,-30.32178 z"
             style="fill:#c0c0c0;fill-opacity:1;fill-rule:evenodd;stroke:#000000;stroke-width:9.71277809;stroke-linecap:round;stroke-linejoin:round;stroke-miterlimit:4;stroke-dasharray:none;stroke-opacity:1" />
          <path
             style="fill:#89a02c;fill-rule:evenodd;stroke:#000000;stroke-width:9.71277809;stroke-linecap:round;stroke-linejoin:round;stroke-miterlimit:4;stroke-dasharray:none;stroke-opacity:1"
             d="m -2997.1544,-1050.4723 c 9.318,0.5428 19.9536,18.2558 21.3477,23.6887 -0.9819,15.8786 -3.1867,41.20416 -11.111,40.65699 0.059,12.21488 -10.378,12.73668 -8.6167,23.65764 -11.3321,15.048 -17.8483,24.48971 -37.4358,24.71864 -26.675,0.52872 -53.4613,1.86855 -80.0964,0.1216 -20.8804,0.0335 -27.1801,-31.86518 -33.3995,-46.19012 -0.3755,-15.21991 16.1319,-28.30715 24.2753,-41.68175 6.3206,-11.283 16.6398,-13.3595 27.41,-25.5975 -7.4364,4.7866 5.8202,-4.5184 10.9674,-0.7037 5.1839,-7.7214 28.9098,-4.8866 41.7696,-6.8719 17.7351,-2.4956 34.6908,4.4855 51.9982,8.378 10.0669,-10.1231 -4.9047,-2.3852 -7.1088,-0.1782 z"
             id="path10237"
             inkscape:connector-curvature="0" />
          <path
             inkscape:connector-curvature="0"
             id="path10214"
             d="m -3021.0168,-1054.8551 -31.8193,13.4765 -14.4633,23.5837 17.356,13.4763 0,20.21463 14.4633,16.84549 17.3561,-16.84549 0,-16.84543 8.6778,13.47625 23.1413,33.69118 -5.7852,16.84548 5.7852,13.4763 14.4634,-20.21466 0,-30.32178 28.9266,-26.95277 20.2487,-3.3692 c 0,0 0,-6.7382 -8.678,-20.2145 -8.678,-13.4765 -23.1413,-23.5838 -23.1413,-23.5838 l -11.5708,-10.1071 -26.0338,6.7381 z"
             style="fill:#a0564a;fill-opacity:1;fill-rule:evenodd;stroke:#000000;stroke-width:9.71277809;stroke-linecap:round;stroke-linejoin:round;stroke-miterlimit:4;stroke-dasharray:none;stroke-opacity:1" />
          <path
             style="fill:#c0c0c0;fill-opacity:1;fill-rule:evenodd;stroke:#000000;stroke-width:9.71277809;stroke-linecap:round;stroke-linejoin:round;stroke-miterlimit:4;stroke-dasharray:none;stroke-opacity:1"
             d="m -2578.4393,-1048.1169 -31.8193,13.4765 -14.4634,23.5836 17.3561,13.47632 0,20.21467 14.4633,16.84548 17.356,-16.84548 0,-16.84549 8.6779,13.47631 23.1413,33.69117 -5.7853,16.84548 5.7853,13.4763 14.4633,-20.21466 0,-30.32178 28.9266,-26.95282 20.2488,-3.36918 c 0,0 0,-6.73812 -8.678,-20.21442 -8.678,-13.4765 -23.1413,-23.5839 -23.1413,-23.5839 l -11.5708,-10.1071 -26.0339,6.7382 z"
             id="path10228"
             inkscape:connector-curvature="0" />
          <path
             inkscape:connector-curvature="0"
             id="path10216"
             d="m -2659.4097,-1029.4092 -31.7989,3.7304 -8.6724,14.9208 5.7819,22.3815 5.7815,33.5721 5.7815,41.03267 11.5632,3.72998 14.4541,-11.19056 -2.8909,-37.30249 14.4541,-26.11151 5.7815,11.19077 2.8909,18.65114 17.3447,7.46037 8.6725,-11.19077 8.6724,-33.57209 23.1264,26.11172 14.454,22.38153 20.2356,-37.30249 -5.7817,-37.30227 -11.563,-14.9212 -43.3622,-7.4603 -37.5804,-7.4604 z"
             style="fill:#a0564a;fill-opacity:1;fill-rule:evenodd;stroke:#000000;stroke-width:9.71277809;stroke-linecap:round;stroke-linejoin:round;stroke-miterlimit:4;stroke-dasharray:none;stroke-opacity:1" />
          <path
             inkscape:connector-curvature="0"
             id="path10218"
             d="m -3047.0508,-1041.3786 c -81.9314,-4.3268 -161.719,9.131 -234.3057,-30.322 l 5.7853,-57.2745 173.5599,20.2146 130.1698,0 98.3506,0 5.7853,57.2746 c -59.7413,3.8944 -118.0976,25.7948 -179.3452,10.1073 z"
             style="fill:#b93b27;fill-opacity:1;fill-rule:evenodd;stroke:#000000;stroke-width:9.71277809;stroke-linecap:round;stroke-linejoin:round;stroke-miterlimit:4;stroke-dasharray:none;stroke-opacity:1"
             sodipodi:nodetypes="cccccccc" />
          <path
             sodipodi:nodetypes="ccccccccccccccc"
             inkscape:connector-curvature="0"
             id="path10220"
             d="m -2893.7395,-1078.4387 2.8925,33.691 c 21.2676,14.7118 49.0213,14.2896 74.96,18.1022 29.4766,14.5869 54.5683,12.2198 89.9219,12.2198 11.5706,0 63.6385,3.3689 63.6385,3.3689 l 60.746,-10.1073 66.5312,-13.4763 20.2486,-16.8455 52.068,-30.322 2.8927,-10.1073 -2.8927,-26.9526 -138.8478,-10.1073 -133.0625,3.3691 -133.0625,-10.1073 z"
             style="fill:#b93b27;fill-opacity:1;fill-rule:evenodd;stroke:#000000;stroke-width:9.71277809;stroke-linecap:round;stroke-linejoin:round;stroke-miterlimit:4;stroke-dasharray:none;stroke-opacity:1" />
          <path
             sodipodi:nodetypes="cccsccccccccc"
             inkscape:connector-curvature="0"
             id="path10222"
             d="m -2529.2641,-1088.546 11.5708,53.9056 20.2486,-16.8455 c 0,0 -5.7853,-6.7381 23.1413,-6.7381 28.9266,0 57.8532,-13.4766 57.8532,-13.4766 l 46.2827,-30.3217 8.678,-13.4765 0,-10.1074 -11.5707,-33.6909 -2.8926,0 -75.2094,13.4765 -86.7797,13.4763 z"
             style="fill:#b93b27;fill-opacity:1;fill-rule:evenodd;stroke:#000000;stroke-width:9.71277809;stroke-linecap:round;stroke-linejoin:round;stroke-miterlimit:4;stroke-dasharray:none;stroke-opacity:1" />
          <path
             sodipodi:nodetypes="cccccssccccssscscccccccccccccccccccsccscscccccc"
             inkscape:connector-curvature="0"
             id="path10224"
             d="m -3122.2601,-1172.7734 -104.1359,-53.9057 -23.1413,23.5837 -28.9266,13.4765 -14.3336,27.4755 c 0,0 -32.3181,-28.1568 -32.3181,-4.5731 0,23.5836 -8.3088,31.003 -5.4163,61.325 2.8927,30.3218 11.5708,43.7983 11.5708,43.7983 l 75.2092,-23.5837 28.9267,47.1673 52.0679,-30.3218 c 0,0 20.2486,-40.4293 26.0339,-26.9528 5.7853,13.4763 20.2486,43.7983 31.8193,50.5365 11.5706,6.7381 8.6781,0 20.2486,0 11.5708,0 54.9607,-20.2147 54.9607,-20.2147 0,0 46.2825,13.4765 54.9605,30.322 8.678,16.8455 26.0341,0 26.0341,0 l 37.6046,-57.2748 16.9769,59.5085 37.9836,-46.032 20.2486,-23.5838 20.2488,30.3219 43.3899,-30.3219 40.4972,33.6911 52.068,-37.0601 26.034,43.7983 69.0151,-19.6391 21.7846,-21.2761 54.3222,73.207 10.7028,-39.2572 32.1983,-33.4637 31.4604,52.9603 3.142,-75.8101 43.4997,16.1642 12.8372,-46.766 c 0,0 53.694,-13.9306 36.338,-34.145 -17.3561,-20.2147 -52.068,-53.9056 -52.068,-53.9056 l -8.678,-40.4292 c 0,0 -92.5651,20.2145 -83.8871,23.5837 8.678,3.3692 -46.2827,-6.7382 -46.2827,-6.7382 0,0 -75.2093,-77.4892 -92.5651,-40.4293 -17.3561,37.0601 -121.492,84.2276 -121.492,84.2276 l -173.5598,-84.2276 -78.1019,30.322 -92.5651,-40.4291 -86.78,47.1672 z"
             style="fill:#559557;fill-opacity:1;fill-rule:evenodd;stroke:#000000;stroke-width:9.71277809;stroke-linecap:round;stroke-linejoin:round;stroke-miterlimit:4;stroke-dasharray:none;stroke-opacity:1" />
          <path
             sodipodi:nodetypes="cccscccccccsccccccccc"
             inkscape:connector-curvature="0"
             id="path10226"
             d="m -3281.3563,-1361.4431 -23.1414,47.1674 2.8926,70.7512 c 0,0 2.8927,16.8454 14.4633,30.3217 11.5708,13.4765 26.0341,23.5837 26.0341,23.5837 l 83.8871,10.1073 72.3167,10.1073 72.3166,3.3692 150.4185,6.7382 92.5652,0 60.7459,-16.8455 c 0,0 107.0285,-20.2147 138.8478,-20.2147 31.8194,0 54.9607,-3.369 54.9607,-3.369 l 130.1698,-40.4293 26.0339,-23.5836 11.5707,-10.1073 c -38.0107,-92.4205 -82.9522,-115.8526 -159.0965,-154.9786 l -83.8872,-43.798 -92.5653,-33.691 c -78.4497,-53.2979 -225.9129,-23.0855 -350.0121,3.369 -127.3352,-3.991 -169.9135,67.3987 -228.5204,141.502 z"
             style="fill:#bfa07b;fill-opacity:1;fill-rule:evenodd;stroke:#000000;stroke-width:9.71277809;stroke-linecap:round;stroke-linejoin:round;stroke-miterlimit:4;stroke-dasharray:none;stroke-opacity:1" />
          <path
             style="opacity:0.79299999;fill:url(#linearGradient10296);fill-opacity:1;fill-rule:evenodd;stroke:#000000;stroke-width:9.71277809;stroke-linecap:round;stroke-linejoin:round;stroke-miterlimit:4;stroke-dasharray:none;stroke-opacity:1"
             d="m -3281.3563,-1361.4431 -23.1414,47.1674 2.8926,70.7512 c 0,0 2.8927,16.8454 14.4633,30.3217 11.5708,13.4765 26.0341,23.5837 26.0341,23.5837 l 83.8871,10.1073 72.3167,10.1073 72.3166,3.3692 150.4185,6.7382 92.5652,0 60.7459,-16.8455 c 0,0 107.0285,-20.2147 138.8478,-20.2147 31.8194,0 54.9607,-3.369 54.9607,-3.369 l 130.1698,-40.4293 26.0339,-23.5836 11.5707,-10.1073 c -38.0107,-92.4205 -82.9522,-115.8526 -159.0965,-154.9786 l -83.8872,-43.798 -92.5653,-33.691 c -78.4497,-53.2979 -225.9129,-23.0855 -350.0121,3.369 -127.3352,-3.991 -169.9135,67.3987 -228.5204,141.502 z"
             id="path10288"
             inkscape:connector-curvature="0"
             sodipodi:nodetypes="cccscccccccsccccccccc" />
          <path
             inkscape:connector-curvature="0"
             id="path10241"
             d="m -3184.4835,-1380.3291 c -3.6356,3.5363 -5.3743,10.9744 -11.1236,10.1734 -2.0455,1.5222 -4.1405,5.5656 -6.1682,2.1419 -2.4427,-0.2589 -3.558,1.951 -1.2072,3.0799 -1.7193,1.9654 -1.7557,6.6637 -3.0817,10.2172 -0.882,4.0943 -3.269,8.6163 -0.785,12.6637 0.5807,3.5025 -1.9301,8.5379 -2.1249,10.7214 2.5747,-3.279 3.7996,3.0742 1.8113,4.9899 3.7298,-0.9103 7.2327,-0.6874 10.2782,1.8413 2.1829,0.6099 5.8265,-0.9121 2.9585,-3.0356 0.3976,-3.1025 2.5541,-2.2354 2.694,0.1991 3.9372,1.8281 3.0205,-7.4341 -0.032,-5.067 0.281,-5.2868 4.2434,-3.2298 4.164,-1.3441 1.5455,-2.3404 -0.8564,-4.693 0.9727,-1.1532 2.8976,0.1782 -0.5144,-3.8998 2.846,-3.9736 3.2765,-4.6241 3.4142,4.0627 0.196,1.5725 -0.7722,-3.5612 5.5835,-4.3356 4.8246,-6.8847 -4.3293,5.8569 -3.4379,-4.8329 -1.7022,-7.3438 1.5683,0.3499 -2.3594,4.1843 -1.197,0.399 -0.1782,-4.7988 -4.4581,3.4444 -5.8636,-1.7065 -0.1859,-2.678 5.1661,-4.613 0.767,-6.2633 -2.7261,3.5434 0.1921,-3.13 -0.04,-1.9981 0.9842,-4.6323 0.7803,-10.2728 1.6173,-16.2696 0.086,-0.9843 0.1548,-1.973 0.1953,-2.9593 z"
             style="fill:#c1a99c;fill-opacity:1;fill-rule:evenodd;stroke:#000000;stroke-width:5.82766676;stroke-linecap:round;stroke-linejoin:round;stroke-miterlimit:4;stroke-dasharray:none;stroke-opacity:1" />
          <path
             style="fill:#c1a99c;fill-opacity:1;fill-rule:evenodd;stroke:#000000;stroke-width:5.82766676;stroke-linecap:round;stroke-linejoin:round;stroke-miterlimit:4;stroke-dasharray:none;stroke-opacity:1"
             d="m -3123.2845,-1401.2934 c -3.6355,3.5363 -5.3743,10.9744 -11.1236,10.1734 -2.0455,1.5222 -4.1405,5.5656 -6.1681,2.1419 -2.4428,-0.2589 -3.5581,1.9509 -1.2073,3.0799 -1.7193,1.9654 -1.7557,6.6637 -3.0817,10.2171 -0.882,4.0944 -3.2689,8.6164 -0.785,12.6638 0.5807,3.5025 -1.9301,8.5379 -2.1249,10.7213 2.5747,-3.279 3.7996,3.0742 1.8114,4.99 3.7297,-0.9103 7.2326,-0.6874 10.2782,1.8413 2.1828,0.6098 5.8265,-0.9122 2.9584,-3.0357 0.3976,-3.1025 2.5541,-2.2354 2.694,0.1992 3.9373,1.8281 3.0205,-7.4342 -0.032,-5.0671 0.281,-5.2868 4.2434,-3.2298 4.1641,-1.344 1.5454,-2.3405 -0.8565,-4.6931 0.9727,-1.1533 2.8976,0.1782 -0.5145,-3.8997 2.8459,-3.9735 3.2765,-4.6241 3.4142,4.0626 0.196,1.5725 -0.7722,-3.5612 5.5835,-4.3356 4.8247,-6.8847 -4.3293,5.8568 -3.438,-4.8329 -1.7023,-7.3438 1.5683,0.3499 -2.3594,4.1843 -1.197,0.3989 -0.1782,-4.7987 -4.4581,3.4445 -5.8635,-1.7065 -0.186,-2.6779 5.1661,-4.613 0.7669,-6.2633 -2.726,3.5434 0.1921,-3.1299 -0.04,-1.9981 0.9842,-4.6323 0.7803,-10.2727 1.6173,-16.2696 0.086,-0.9842 0.1548,-1.9729 0.1953,-2.9593 z"
             id="path10251"
             inkscape:connector-curvature="0" />
          <path
             inkscape:connector-curvature="0"
             id="path10253"
             d="m -3140.6405,-1296.8513 c -3.6356,3.5362 -5.3744,10.9744 -11.1237,10.1733 -2.0454,1.5222 -4.1404,5.5656 -6.1681,2.142 -2.4427,-0.259 -3.558,1.9509 -1.2072,3.0798 -1.7194,1.9654 -1.7557,6.6638 -3.0818,10.2172 -0.8819,4.0943 -3.2689,8.6164 -0.7849,12.6637 0.5806,3.5025 -1.9301,8.538 -2.1249,10.7214 2.5747,-3.279 3.7996,3.0742 1.8113,4.9899 3.7297,-0.9102 7.2327,-0.6874 10.2782,1.8413 2.1828,0.6099 5.8265,-0.9121 2.9584,-3.0356 0.3977,-3.1025 2.5542,-2.2354 2.6941,0.1992 3.9372,1.8281 3.0205,-7.4342 -0.032,-5.0671 0.2809,-5.2868 4.2434,-3.2298 4.164,-1.344 1.5455,-2.3405 -0.8564,-4.6931 0.9727,-1.1533 2.8976,0.1782 -0.5144,-3.8998 2.846,-3.9736 3.2764,-4.6241 3.4141,4.0627 0.196,1.5726 -0.7722,-3.5613 5.5835,-4.3357 4.8246,-6.8847 -4.3293,5.8568 -3.4379,-4.8329 -1.7022,-7.3438 1.5683,0.3499 -2.3594,4.1842 -1.197,0.3989 -0.1782,-4.7987 -4.4582,3.4445 -5.8636,-1.7065 -0.1859,-2.678 5.1661,-4.613 0.767,-6.2633 -2.7261,3.5434 0.192,-3.13 -0.04,-1.9981 0.9842,-4.6323 0.7803,-10.2727 1.6173,-16.2696 0.086,-0.9843 0.1548,-1.973 0.1953,-2.9593 z"
             style="fill:#c1a99c;fill-opacity:1;fill-rule:evenodd;stroke:#000000;stroke-width:5.82766676;stroke-linecap:round;stroke-linejoin:round;stroke-miterlimit:4;stroke-dasharray:none;stroke-opacity:1" />
          <path
             style="fill:#c1a99c;fill-opacity:1;fill-rule:evenodd;stroke:#000000;stroke-width:5.82766676;stroke-linecap:round;stroke-linejoin:round;stroke-miterlimit:4;stroke-dasharray:none;stroke-opacity:1"
             d="m -3042.2899,-1448.4607 c -3.6356,3.5363 -5.3744,10.9744 -11.1236,10.1734 -2.0455,1.5222 -4.1405,5.5656 -6.1682,2.1419 -2.4427,-0.2589 -3.558,1.951 -1.2072,3.0799 -1.7194,1.9654 -1.7557,6.6637 -3.0818,10.2172 -0.8819,4.0943 -3.2689,8.6163 -0.7849,12.6637 0.5806,3.5025 -1.9301,8.5379 -2.1249,10.7214 2.5747,-3.2791 3.7996,3.0742 1.8113,4.9899 3.7297,-0.9103 7.2327,-0.6874 10.2782,1.8413 2.1828,0.6099 5.8265,-0.9122 2.9585,-3.0356 0.3976,-3.1025 2.5541,-2.2355 2.694,0.1991 3.9372,1.8281 3.0205,-7.4341 -0.032,-5.0671 0.2809,-5.2867 4.2434,-3.2297 4.164,-1.344 1.5455,-2.3404 -0.8564,-4.6931 0.9727,-1.1532 2.8976,0.1782 -0.5144,-3.8998 2.846,-3.9736 3.2764,-4.6241 3.4141,4.0627 0.196,1.5725 -0.7722,-3.5612 5.5835,-4.3356 4.8246,-6.8847 -4.3293,5.8568 -3.4379,-4.8329 -1.7022,-7.3438 1.5683,0.3499 -2.3594,4.1843 -1.197,0.399 -0.1782,-4.7988 -4.4582,3.4444 -5.8636,-1.7065 -0.1859,-2.678 5.1661,-4.613 0.767,-6.2633 -2.7261,3.5434 0.192,-3.13 -0.04,-1.9981 0.9842,-4.6323 0.7803,-10.2728 1.6173,-16.2696 0.086,-0.9843 0.1548,-1.973 0.1953,-2.9594 z"
             id="path10255"
             inkscape:connector-curvature="0" />
          <path
             inkscape:connector-curvature="0"
             id="path10257"
             d="m -3045.1826,-1317.0658 c -3.6356,3.5363 -5.3744,10.9744 -11.1237,10.1734 -2.0455,1.5222 -4.1404,5.5656 -6.1681,2.1419 -2.4428,-0.2589 -3.558,1.9509 -1.2073,3.0799 -1.7193,1.9654 -1.7556,6.6637 -3.0817,10.2172 -0.882,4.0943 -3.2689,8.6163 -0.785,12.6637 0.5807,3.5025 -1.9301,8.5379 -2.1248,10.7214 2.5747,-3.2791 3.7995,3.0742 1.8113,4.9899 3.7297,-0.9103 7.2326,-0.6874 10.2782,1.8413 2.1828,0.6098 5.8265,-0.9122 2.9584,-3.0357 0.3976,-3.1025 2.5542,-2.2354 2.694,0.1992 3.9373,1.8281 3.0206,-7.4342 -0.032,-5.0671 0.281,-5.2868 4.2435,-3.2297 4.1641,-1.344 1.5454,-2.3405 -0.8564,-4.6931 0.9727,-1.1532 2.8976,0.1782 -0.5144,-3.8998 2.8459,-3.9736 3.2765,-4.6241 3.4142,4.0627 0.196,1.5725 -0.7721,-3.5612 5.5836,-4.3356 4.8247,-6.8847 -4.3293,5.8568 -3.438,-4.8329 -1.7022,-7.3438 1.5683,0.3499 -2.3594,4.1843 -1.197,0.399 -0.1782,-4.7988 -4.4582,3.4444 -5.8636,-1.7065 -0.1859,-2.678 5.1661,-4.613 0.767,-6.2633 -2.7261,3.5433 0.192,-3.13 -0.04,-1.9982 0.9842,-4.6322 0.7802,-10.2727 1.6172,-16.2696 0.086,-0.9842 0.1548,-1.9729 0.1953,-2.9593 z"
             style="fill:#c1a99c;fill-opacity:1;fill-rule:evenodd;stroke:#000000;stroke-width:5.82766676;stroke-linecap:round;stroke-linejoin:round;stroke-miterlimit:4;stroke-dasharray:none;stroke-opacity:1" />
          <path
             style="fill:#c1a99c;fill-opacity:1;fill-rule:evenodd;stroke:#000000;stroke-width:5.82766676;stroke-linecap:round;stroke-linejoin:round;stroke-miterlimit:4;stroke-dasharray:none;stroke-opacity:1"
             d="m -2502.2307,-1360.1146 c 3.6356,3.5363 5.3744,10.9744 11.1237,10.1734 2.0455,1.5222 4.1404,5.5656 6.1681,2.1419 2.4428,-0.2589 3.558,1.9509 1.2073,3.0799 1.7193,1.9654 1.7556,6.6637 3.0817,10.2171 0.882,4.0944 3.2689,8.6164 0.785,12.6638 -0.5807,3.5025 1.9301,8.5379 2.1248,10.7213 -2.5747,-3.279 -3.7995,3.0742 -1.8113,4.99 -3.7297,-0.9103 -7.2326,-0.6875 -10.2782,1.8413 -2.1828,0.6098 -5.8265,-0.9122 -2.9584,-3.0357 -0.3976,-3.1025 -2.5542,-2.2354 -2.694,0.1992 -3.9373,1.8281 -3.0206,-7.4342 0.032,-5.0671 -0.281,-5.2868 -4.2435,-3.2298 -4.1641,-1.344 -1.5454,-2.3405 0.8564,-4.6931 -0.9727,-1.1533 -2.8976,0.1782 0.5144,-3.8998 -2.8459,-3.9735 -3.2765,-4.6242 -3.4142,4.0626 -0.196,1.5725 0.7721,-3.5612 -5.5836,-4.3356 -4.8247,-6.8847 4.3293,5.8568 3.438,-4.8329 1.7022,-7.3438 -1.5683,0.3499 2.3594,4.1843 1.197,0.3989 0.1782,-4.7987 4.4582,3.4445 5.8636,-1.7065 0.1859,-2.6779 -5.1661,-4.613 -0.767,-6.2633 2.7261,3.5434 -0.192,-3.1299 0.04,-1.9981 -0.9842,-4.6323 -0.7802,-10.2727 -1.6172,-16.2696 -0.086,-0.9842 -0.1548,-1.9729 -0.1953,-2.9593 z"
             id="path10259"
             inkscape:connector-curvature="0" />
          <path
             inkscape:connector-curvature="0"
             id="path10261"
             d="m -2595.249,-1411.4007 c 3.6355,3.5362 5.3743,10.9744 11.1236,10.1733 2.0455,1.5222 4.1405,5.5656 6.1681,2.142 2.4428,-0.259 3.558,1.9509 1.2073,3.0798 1.7193,1.9654 1.7557,6.6638 3.0817,10.2172 0.882,4.0943 3.2689,8.6164 0.785,12.6637 -0.5807,3.5025 1.9301,8.538 2.1248,10.7214 -2.5746,-3.279 -3.7995,3.0742 -1.8113,4.9899 -3.7297,-0.9102 -7.2326,-0.6874 -10.2782,1.8413 -2.1828,0.6099 -5.8265,-0.9121 -2.9584,-3.0356 -0.3976,-3.1025 -2.5542,-2.2354 -2.694,0.1992 -3.9373,1.8281 -3.0205,-7.4342 0.032,-5.0671 -0.281,-5.2868 -4.2434,-3.2298 -4.1641,-1.344 -1.5454,-2.3405 0.8565,-4.6931 -0.9727,-1.1533 -2.8976,0.1782 0.5145,-3.8998 -2.8459,-3.9736 -3.2765,-4.6241 -3.4142,4.0627 -0.196,1.5726 0.7722,-3.5613 -5.5835,-4.3357 -4.8247,-6.8847 4.3293,5.8568 3.438,-4.8329 1.7023,-7.3438 -1.5683,0.3499 2.3594,4.1842 1.197,0.3989 0.1781,-4.7987 4.4581,3.4445 5.8635,-1.7065 0.186,-2.678 -5.1661,-4.613 -0.7669,-6.2633 2.726,3.5434 -0.1921,-3.13 0.04,-1.9981 -0.9843,-4.6323 -0.7803,-10.2727 -1.6173,-16.2696 -0.086,-0.9843 -0.1548,-1.973 -0.1953,-2.9593 z"
             style="fill:#c1a99c;fill-opacity:1;fill-rule:evenodd;stroke:#000000;stroke-width:5.82766676;stroke-linecap:round;stroke-linejoin:round;stroke-miterlimit:4;stroke-dasharray:none;stroke-opacity:1" />
          <path
             style="fill:#c1a99c;fill-opacity:1;fill-rule:evenodd;stroke:#000000;stroke-width:5.82766676;stroke-linecap:round;stroke-linejoin:round;stroke-miterlimit:4;stroke-dasharray:none;stroke-opacity:1"
             d="m -2577.893,-1306.9587 c 3.6356,3.5363 5.3744,10.9744 11.1236,10.1734 2.0455,1.5222 4.1405,5.5656 6.1682,2.1419 2.4427,-0.2589 3.558,1.951 1.2072,3.0799 1.7194,1.9654 1.7557,6.6637 3.0818,10.2172 0.8819,4.0943 3.2689,8.6163 0.7849,12.6637 -0.5806,3.5025 1.9301,8.5379 2.1249,10.7214 -2.5747,-3.2791 -3.7996,3.0742 -1.8113,4.9899 -3.7297,-0.9103 -7.2327,-0.6874 -10.2782,1.8413 -2.1828,0.6099 -5.8265,-0.9122 -2.9584,-3.0356 -0.3977,-3.1025 -2.5542,-2.2355 -2.6941,0.1991 -3.9372,1.8281 -3.0205,-7.4341 0.032,-5.0671 -0.2809,-5.2867 -4.2434,-3.2297 -4.164,-1.344 -1.5455,-2.3404 0.8564,-4.6931 -0.9727,-1.1532 -2.8976,0.1782 0.5144,-3.8998 -2.846,-3.9736 -3.2764,-4.6241 -3.4141,4.0627 -0.196,1.5725 0.7722,-3.5612 -5.5835,-4.3356 -4.8246,-6.8847 4.3293,5.8568 3.4379,-4.8329 1.7022,-7.3438 -1.5683,0.3499 2.3594,4.1843 1.197,0.399 0.1782,-4.7988 4.4582,3.4444 5.8636,-1.7065 0.1859,-2.678 -5.1661,-4.613 -0.767,-6.2633 2.7261,3.5434 -0.192,-3.13 0.04,-1.9981 -0.9842,-4.6323 -0.7803,-10.2728 -1.6173,-16.2696 -0.086,-0.9843 -0.1548,-1.973 -0.1953,-2.9594 z"
             id="path10263"
             inkscape:connector-curvature="0" />
          <path
             inkscape:connector-curvature="0"
             id="path10265"
             d="m -2676.2436,-1455.1988 c 3.6356,3.5362 5.3743,10.9744 11.1236,10.1733 2.0455,1.5223 4.1405,5.5657 6.1682,2.142 2.4427,-0.2589 3.558,1.9509 1.2072,3.0798 1.7193,1.9654 1.7557,6.6638 3.0817,10.2172 0.882,4.0944 3.269,8.6164 0.785,12.6637 -0.5807,3.5026 1.9301,8.538 2.1249,10.7214 -2.5747,-3.279 -3.7996,3.0742 -1.8113,4.99 -3.7298,-0.9103 -7.2327,-0.6875 -10.2782,1.8413 -2.1829,0.6098 -5.8265,-0.9122 -2.9585,-3.0357 -0.3976,-3.1025 -2.5541,-2.2354 -2.694,0.1992 -3.9372,1.8281 -3.0205,-7.4342 0.032,-5.0671 -0.281,-5.2868 -4.2434,-3.2298 -4.164,-1.344 -1.5455,-2.3405 0.8564,-4.6931 -0.9727,-1.1533 -2.8976,0.1782 0.5144,-3.8998 -2.846,-3.9736 -3.2765,-4.6241 -3.4142,4.0627 -0.196,1.5726 0.7722,-3.5612 -5.5835,-4.3357 -4.8246,-6.8847 4.3293,5.8568 3.4379,-4.8329 1.7022,-7.3438 -1.5683,0.3499 2.3594,4.1842 1.197,0.3989 0.1782,-4.7987 4.4582,3.4445 5.8636,-1.7065 0.1859,-2.678 -5.1661,-4.613 -0.767,-6.2633 2.7261,3.5434 -0.1921,-3.13 0.04,-1.9981 -0.9842,-4.6323 -0.7803,-10.2727 -1.6173,-16.2696 -0.086,-0.9843 -0.1548,-1.9729 -0.1953,-2.9593 z"
             style="fill:#c1a99c;fill-opacity:1;fill-rule:evenodd;stroke:#000000;stroke-width:5.82766676;stroke-linecap:round;stroke-linejoin:round;stroke-miterlimit:4;stroke-dasharray:none;stroke-opacity:1" />
          <path
             style="fill:#c1a99c;fill-opacity:1;fill-rule:evenodd;stroke:#000000;stroke-width:5.82766676;stroke-linecap:round;stroke-linejoin:round;stroke-miterlimit:4;stroke-dasharray:none;stroke-opacity:1"
             d="m -2673.3509,-1327.1731 c 3.6356,3.5362 5.3744,10.9744 11.1237,10.1733 2.0455,1.5223 4.1404,5.5657 6.1681,2.142 2.4428,-0.2589 3.558,1.9509 1.2073,3.0798 1.7193,1.9654 1.7556,6.6638 3.0817,10.2172 0.882,4.0944 3.2689,8.6164 0.7849,12.6637 -0.5806,3.5026 1.9302,8.538 2.1249,10.7214 -2.5747,-3.279 -3.7995,3.0742 -1.8113,4.99 -3.7297,-0.9103 -7.2326,-0.6875 -10.2782,1.8413 -2.1828,0.6098 -5.8265,-0.9122 -2.9584,-3.0357 -0.3976,-3.1025 -2.5542,-2.2354 -2.694,0.1992 -3.9373,1.8281 -3.0206,-7.4342 0.032,-5.0671 -0.281,-5.2868 -4.2435,-3.2298 -4.1641,-1.344 -1.5455,-2.3405 0.8564,-4.6931 -0.9727,-1.1533 -2.8976,0.1782 0.5144,-3.8998 -2.8459,-3.9736 -3.2765,-4.6241 -3.4142,4.0627 -0.1961,1.5726 0.7722,-3.5612 -5.5835,-4.3357 -4.8246,-6.8847 4.3293,5.8568 3.438,-4.8329 1.7022,-7.3438 -1.5683,0.3499 2.3594,4.1842 1.197,0.3989 0.1782,-4.7987 4.4582,3.4445 5.8636,-1.7065 0.1859,-2.678 -5.1661,-4.613 -0.767,-6.2633 2.7261,3.5434 -0.192,-3.13 0.04,-1.9981 -0.9842,-4.6323 -0.7803,-10.2727 -1.6172,-16.2696 -0.086,-0.9843 -0.1548,-1.9729 -0.1953,-2.9593 z"
             id="path10267"
             inkscape:connector-curvature="0" />
          <path
             style="fill:#c1a99c;fill-opacity:1;fill-rule:evenodd;stroke:#000000;stroke-width:5.82766676;stroke-linecap:round;stroke-linejoin:round;stroke-miterlimit:4;stroke-dasharray:none;stroke-opacity:1"
             d="m -2955.7361,-1322.1593 c -2.8049,4.4455 -2.9675,12.1522 -8.7146,12.9742 -1.674,2.0474 -2.8787,6.5566 -5.55,3.7964 -2.4251,0.4283 -3.0547,2.8845 -0.5405,3.3267 -1.2663,2.387 -0.3377,6.9593 -0.8964,10.7788 -0.018,4.2212 -1.4067,9.2765 1.8356,12.5153 1.2825,3.2396 -0.1224,8.8279 0.1368,11.0023 1.8275,-3.9006 4.3203,1.9277 2.7826,4.3413 3.4348,-1.9218 6.8821,-2.6803 10.3582,-1.0723 2.2446,-0.021 5.4707,-2.5072 2.25,-3.7711 -0.2504,-3.1233 2.0216,-2.8814 2.6568,-0.5562 4.1982,0.6795 1.4081,-8.0595 -1.0708,-4.9113 -0.8118,-5.212 3.4579,-4.3172 3.7677,-2.464 1.0205,-2.7027 -1.7944,-4.3188 0.7079,-1.3905 2.8502,-0.6334 -1.2996,-3.6436 1.9483,-4.6505 2.233,-5.4019 4.1487,2.9949 0.513,1.4725 -1.4805,-3.2432 4.5323,-5.7639 3.2725,-8.0279 -3.0023,6.8918 -4.3298,-3.7363 -3.1595,-6.6574 1.5948,-0.097 -1.4326,4.7197 -1.0805,0.7205 -1.1574,-4.6102 -3.6225,4.5853 -6.0438,-0.025 -0.7299,-2.5487 4.0701,-5.917 -0.5401,-6.2954 -1.9203,4.1993 -0.4556,-3.0927 -0.4484,-1.9292 0,-4.7721 -1.3496,-10.1924 -1.767,-16.2484 -0.1188,-0.9798 -0.2546,-1.9589 -0.4176,-2.9281 z"
             id="path10269"
             inkscape:connector-curvature="0" />
          <path
             inkscape:connector-curvature="0"
             id="path10271"
             d="m -2854.9377,-1322.1593 c -2.8049,4.4455 -2.9675,12.1522 -8.7146,12.9742 -1.674,2.0474 -2.8787,6.5566 -5.55,3.7964 -2.4251,0.4283 -3.0548,2.8845 -0.5406,3.3267 -1.2662,2.387 -0.3376,6.9593 -0.8963,10.7788 -0.018,4.2212 -1.4067,9.2765 1.8356,12.5153 1.2824,3.2396 -0.1224,8.8279 0.1368,11.0023 1.8275,-3.9006 4.3203,1.9277 2.7825,4.3413 3.4349,-1.9218 6.8822,-2.6803 10.3583,-1.0723 2.2446,-0.021 5.4707,-2.5072 2.25,-3.7711 -0.2504,-3.1233 2.0215,-2.8814 2.6568,-0.5562 4.1982,0.6795 1.4081,-8.0595 -1.0708,-4.9113 -0.8118,-5.212 3.4579,-4.3172 3.7677,-2.464 1.0205,-2.7027 -1.7944,-4.3188 0.7079,-1.3905 2.8502,-0.6334 -1.2996,-3.6436 1.9483,-4.6505 2.233,-5.4019 4.1487,2.9949 0.513,1.4725 -1.4805,-3.2432 4.5323,-5.7639 3.2725,-8.0279 -3.0024,6.8918 -4.3298,-3.7363 -3.1595,-6.6574 1.5948,-0.097 -1.4326,4.7197 -1.0805,0.7205 -1.1574,-4.6102 -3.6225,4.5853 -6.0438,-0.025 -0.7299,-2.5487 4.0701,-5.917 -0.5402,-6.2954 -1.9202,4.1993 -0.4555,-3.0927 -0.4483,-1.9292 0,-4.7721 -1.3496,-10.1924 -1.7671,-16.2484 -0.1188,-0.9798 -0.2545,-1.9589 -0.4176,-2.9281 z"
             style="fill:#c1a99c;fill-opacity:1;fill-rule:evenodd;stroke:#000000;stroke-width:5.82766676;stroke-linecap:round;stroke-linejoin:round;stroke-miterlimit:4;stroke-dasharray:none;stroke-opacity:1" />
          <path
             style="fill:#c1a99c;fill-opacity:1;fill-rule:evenodd;stroke:#000000;stroke-width:5.82766676;stroke-linecap:round;stroke-linejoin:round;stroke-miterlimit:4;stroke-dasharray:none;stroke-opacity:1"
             d="m -2927.2543,-1443.4468 c -2.8049,4.4454 -2.9674,12.1521 -8.7145,12.9742 -1.674,2.0473 -2.8787,6.5566 -5.5501,3.7964 -2.4251,0.4283 -3.0547,2.8845 -0.5405,3.3266 -1.2663,2.387 -0.3377,6.9593 -0.8964,10.7788 -0.018,4.2212 -1.4067,9.2765 1.8356,12.5153 1.2825,3.2397 -0.1224,8.8279 0.1368,11.0023 1.8275,-3.9006 4.3203,1.9277 2.7826,4.3413 3.4349,-1.9218 6.8822,-2.6803 10.3583,-1.0723 2.2446,-0.021 5.4706,-2.5071 2.25,-3.7711 -0.2504,-3.1232 2.0215,-2.8813 2.6567,-0.5562 4.1983,0.6795 1.4081,-8.0595 -1.0708,-4.9113 -0.8118,-5.2119 3.4579,-4.3172 3.7677,-2.4639 1.0206,-2.7027 -1.7944,-4.3189 0.7079,-1.3906 2.8503,-0.6333 -1.2995,-3.6436 1.9483,-4.6505 2.2331,-5.4019 4.1488,2.995 0.513,1.4725 -1.4805,-3.2431 4.5323,-5.7639 3.2725,-8.0278 -3.0023,6.8918 -4.3298,-3.7363 -3.1594,-6.6575 1.5947,-0.096 -1.4326,4.7197 -1.0806,0.7206 -1.1573,-4.6103 -3.6224,4.5853 -6.0437,-0.025 -0.7299,-2.5486 4.0701,-5.917 -0.5402,-6.2954 -1.9202,4.1994 -0.4556,-3.0926 -0.4484,-1.9291 0,-4.7721 -1.3496,-10.1925 -1.767,-16.2484 -0.1188,-0.9799 -0.2545,-1.9589 -0.4176,-2.9281 z"
             id="path10273"
             inkscape:connector-curvature="0" />
          <path
             inkscape:connector-curvature="0"
             id="path10275"
             d="m -2797.0845,-1463.6615 c -2.8049,4.4455 -2.9674,12.1522 -8.7146,12.9742 -1.6739,2.0474 -2.8787,6.5566 -5.55,3.7964 -2.4251,0.4283 -3.0547,2.8845 -0.5405,3.3267 -1.2663,2.387 -0.3377,6.9593 -0.8964,10.7788 -0.018,4.2211 -1.4067,9.2765 1.8356,12.5153 1.2825,3.2396 -0.1224,8.8278 0.1368,11.0023 1.8275,-3.9007 4.3203,1.9276 2.7826,4.3413 3.4349,-1.9218 6.8822,-2.6803 10.3583,-1.0724 2.2445,-0.021 5.4706,-2.5071 2.2499,-3.771 -0.2503,-3.1233 2.0216,-2.8814 2.6568,-0.5562 4.1982,0.6794 1.4081,-8.0595 -1.0708,-4.9113 -0.8118,-5.212 3.4579,-4.3172 3.7677,-2.464 1.0206,-2.7027 -1.7944,-4.3188 0.7079,-1.3905 2.8503,-0.6334 -1.2996,-3.6436 1.9483,-4.6506 2.2331,-5.4018 4.1488,2.995 0.513,1.4726 -1.4805,-3.2432 4.5323,-5.764 3.2725,-8.0279 -3.0023,6.8918 -4.3298,-3.7363 -3.1595,-6.6574 1.5948,-0.096 -1.4326,4.7197 -1.0805,0.7205 -1.1574,-4.6103 -3.6224,4.5853 -6.0437,-0.025 -0.7299,-2.5487 4.07,-5.917 -0.5402,-6.2954 -1.9202,4.1993 -0.4556,-3.0927 -0.4484,-1.9292 0,-4.7721 -1.3496,-10.1924 -1.767,-16.2484 -0.1188,-0.9799 -0.2545,-1.9589 -0.4176,-2.9281 z"
             style="fill:#c1a99c;fill-opacity:1;fill-rule:evenodd;stroke:#000000;stroke-width:5.82766676;stroke-linecap:round;stroke-linejoin:round;stroke-miterlimit:4;stroke-dasharray:none;stroke-opacity:1" />
          <path
             style="fill:#c1a99c;fill-opacity:1;fill-rule:evenodd;stroke:#000000;stroke-width:5.82766676;stroke-linecap:round;stroke-linejoin:round;stroke-miterlimit:4;stroke-dasharray:none;stroke-opacity:1"
             d="m -2757.4851,-1354.6469 c -2.8049,4.4455 -2.9675,12.1522 -8.7146,12.9742 -1.674,2.0474 -2.8787,6.5566 -5.55,3.7964 -2.4251,0.4283 -3.0548,2.8845 -0.5406,3.3267 -1.2662,2.387 -0.3376,6.9593 -0.8963,10.7788 -0.018,4.2211 -1.4067,9.2765 1.8356,12.5153 1.2825,3.2396 -0.1224,8.8278 0.1368,11.0023 1.8275,-3.9007 4.3203,1.9276 2.7825,4.3413 3.4349,-1.9218 6.8822,-2.6803 10.3583,-1.0724 2.2446,-0.021 5.4707,-2.5071 2.25,-3.771 -0.2504,-3.1233 2.0216,-2.8814 2.6568,-0.5562 4.1982,0.6794 1.4081,-8.0595 -1.0708,-4.9113 -0.8118,-5.212 3.4579,-4.3172 3.7677,-2.464 1.0205,-2.7027 -1.7944,-4.3188 0.7079,-1.3905 2.8502,-0.6334 -1.2996,-3.6436 1.9483,-4.6506 2.233,-5.4018 4.1487,2.995 0.513,1.4726 -1.4805,-3.2432 4.5323,-5.764 3.2725,-8.0279 -3.0024,6.8918 -4.3298,-3.7363 -3.1595,-6.6574 1.5948,-0.097 -1.4326,4.7197 -1.0805,0.7205 -1.1574,-4.6103 -3.6225,4.5853 -6.0438,-0.025 -0.7299,-2.5487 4.0701,-5.917 -0.5402,-6.2954 -1.9202,4.1993 -0.4555,-3.0927 -0.4483,-1.9292 0,-4.7721 -1.3496,-10.1924 -1.7671,-16.2484 -0.1188,-0.9799 -0.2545,-1.9589 -0.4175,-2.9281 z"
             id="path10277"
             inkscape:connector-curvature="0" />
        </g>
      </g>
    </g>
    <g
       transform="scale(0.771291,1.2965275)"
       style="font-style:normal;font-weight:normal;font-size:64.82611084px;line-height:125%;font-family:sans-serif;letter-spacing:0px;word-spacing:0px;fill:#785959;fill-opacity:1;stroke:none;stroke-width:1px;stroke-linecap:butt;stroke-linejoin:miter;stroke-opacity:1"
       id="text10342">
      <path
         d="m -4202.2811,-446.3302 -5.9508,0 0,-20.13155 q 0,-2.27904 -0.2216,-4.39982 -0.1899,-2.12077 -0.8546,-3.38691 -0.728,-1.36109 -2.0891,-2.05747 -1.3611,-0.69637 -3.925,-0.69637 -2.5007,0 -5.0013,1.26613 -2.5006,1.23449 -5.0012,3.16534 0.095,0.72803 0.1583,1.70928 0.063,0.94961 0.063,1.89921 l 0,22.63216 -5.9509,0 0,-20.13155 q 0,-2.34235 -0.2215,-4.43147 -0.19,-2.12077 -0.8547,-3.38691 -0.728,-1.36109 -2.0891,-2.02582 -1.3611,-0.69637 -3.925,-0.69637 -2.4373,0 -4.9063,1.20283 -2.4373,1.20283 -4.8746,3.07038 l 0,26.39891 -5.9509,0 0,-35.35682 5.9509,0 0,3.92502 q 2.7855,-2.3107 5.5393,-3.60849 2.7855,-1.29778 5.9192,-1.29778 3.6085,0 6.1091,1.51936 2.5323,1.51936 3.7667,4.2099 3.6085,-3.03873 6.584,-4.36817 2.9754,-1.36109 6.3623,-1.36109 5.8242,0 8.578,3.54517 2.7855,3.51353 2.7855,9.8442 l 0,22.9487 z"
         id="path10351"
         inkscape:connector-curvature="0" />
      <path
         d="m -4163.474,-446.3302 -5.9192,0 0,-3.76675 q -0.7913,0.53811 -2.1524,1.51936 -1.3295,0.9496 -2.5956,1.51936 -1.4877,0.72803 -3.4186,1.20283 -1.9308,0.50645 -4.5264,0.50645 -4.7797,0 -8.1033,-3.16533 -3.3236,-3.16534 -3.3236,-8.07161 0,-4.01998 1.7093,-6.48895 1.7409,-2.50061 4.9379,-3.92501 3.2287,-1.42441 7.7551,-1.93086 4.5264,-0.50645 9.7176,-0.75968 l 0,-0.91795 q 0,-2.02581 -0.728,-3.35526 -0.6964,-1.32944 -2.0258,-2.08912 -1.2662,-0.72803 -3.0388,-0.98125 -1.7726,-0.25323 -3.7034,-0.25323 -2.3424,0 -5.2228,0.63307 -2.8805,0.60141 -5.9509,1.77259 l -0.3165,0 0,-6.0458 q 1.7409,-0.4748 5.0329,-1.04456 3.2919,-0.56976 6.4889,-0.56976 3.7351,0 6.489,0.63307 2.7855,0.60141 4.8113,2.08912 1.9942,1.45605 3.0387,3.76675 1.0446,2.3107 1.0446,5.72926 l 0,23.99326 z m -5.9192,-8.70468 0,-9.8442 q -2.7222,0.15827 -6.4256,0.4748 -3.6718,0.31654 -5.8243,0.91795 -2.5639,0.72803 -4.1466,2.27904 -1.5826,1.51937 -1.5826,4.2099 0,3.03873 1.8359,4.58974 1.8359,1.51936 5.6026,1.51936 3.1337,0 5.7293,-1.20282 2.5956,-1.23449 4.8113,-2.94377 z"
         id="path10353"
         inkscape:connector-curvature="0" />
      <path
         d="m -4123.4009,-446.3302 -5.9508,0 0,-3.70345 q -2.5639,2.21574 -5.3494,3.45022 -2.7855,1.23448 -6.0458,1.23448 -6.3307,0 -10.0658,-4.87462 -3.7034,-4.87461 -3.7034,-13.51599 0,-4.49478 1.2661,-8.0083 1.2978,-3.51352 3.4819,-5.98249 2.1524,-2.40565 5.0012,-3.67179 2.8805,-1.26613 5.9509,-1.26613 2.7855,0 4.9379,0.60141 2.1524,0.56976 4.5264,1.80424 l 0,-15.32023 5.9508,0 0,49.25265 z m -5.9508,-8.70468 0,-20.28981 q -2.4056,-1.07622 -4.3048,-1.48771 -1.8992,-0.41149 -4.1466,-0.41149 -5.0013,0 -7.7868,3.48187 -2.7855,3.48187 -2.7855,9.87585 0,6.29902 2.1525,9.59097 2.1524,3.2603 6.9004,3.2603 2.5323,0 5.1278,-1.10787 2.5956,-1.13952 4.843,-2.91211 z"
         id="path10355"
         inkscape:connector-curvature="0" />
      <path
         d="m -4082.0932,-463.39137 -26.0507,0 q 0,3.2603 0.9812,5.69761 0.9813,2.40565 2.6906,3.95667 1.6459,1.51936 3.8933,2.27904 2.2791,0.75968 5.0013,0.75968 3.6084,0 7.2486,-1.4244 3.6718,-1.45605 5.2228,-2.8488 l 0.3165,0 0,6.48894 q -3.007,1.26614 -6.1407,2.12078 -3.1337,0.85464 -6.5839,0.85464 -8.7997,0 -13.7376,-4.74801 -4.9379,-4.77966 -4.9379,-13.54764 0,-8.67303 4.7163,-13.76922 4.748,-5.09619 12.4715,-5.09619 7.1536,0 11.0153,4.17824 3.8934,4.17825 3.8934,11.87002 l 0,3.22864 z m -5.7926,-4.55808 q -0.032,-4.6847 -2.374,-7.24863 -2.3107,-2.56392 -7.0587,-2.56392 -4.7796,0 -7.6284,2.81715 -2.8172,2.81715 -3.197,6.9954 l 20.2581,0 z"
         id="path10357"
         inkscape:connector-curvature="0" />
      <path
         d="m -4019.1663,-464.27766 q 0,4.43147 -1.2661,7.97665 -1.2345,3.54517 -3.3553,5.95083 -2.2474,2.50062 -4.9379,3.76675 -2.6906,1.23448 -5.9192,1.23448 -3.0071,0 -5.2545,-0.72802 -2.2473,-0.69638 -4.4314,-1.89921 l -0.3799,1.64598 -5.571,0 0,-49.25265 5.9509,0 0,17.59928 q 2.5006,-2.05747 5.3177,-3.35526 2.8172,-1.32944 6.3307,-1.32944 6.2674,0 9.8759,4.81131 3.6401,4.81131 3.6401,13.5793 z m -6.1407,0.15826 q 0,-6.33067 -2.0892,-9.59097 -2.0891,-3.29195 -6.7421,-3.29195 -2.5956,0 -5.2545,1.13952 -2.6589,1.10787 -4.9379,2.88046 l 0,20.25816 q 2.5322,1.13952 4.3365,1.58267 1.8359,0.44314 4.1466,0.44314 4.9379,0 7.7234,-3.22864 2.8172,-3.2603 2.8172,-10.19239 z"
         id="path10359"
         inkscape:connector-curvature="0" />
      <path
         d="m -3979.3147,-481.68702 -20.638,48.39801 -6.3623,0 6.5839,-14.75047 -14.0858,-33.64754 6.4573,0 10.8571,26.20899 10.9521,-26.20899 6.2357,0 z"
         id="path10361"
         inkscape:connector-curvature="0" />
      <path
         d="m -3933.8288,-445.69713 q 0,6.01414 -3.7034,9.3694 -3.7035,3.38691 -9.5277,3.38691 -3.102,0 -5.666,-0.28488 -2.5322,-0.25323 -3.7034,-0.53811 l 0,-8.16657 0.8863,0 q 0.9496,0.31653 2.374,0.53811 1.4244,0.22157 2.2474,0.22157 3.2919,0 4.4948,-1.96251 1.2028,-1.96251 1.2028,-6.45729 l 0,-24.56302 -6.7422,0 0,-7.72342 18.1374,0 0,36.17981 z m 0,-41.24435 -12.1232,0 0,-8.64137 12.1232,0 0,8.64137 z"
         style="font-weight:bold;fill:#785959;fill-opacity:1"
         id="path10363"
         inkscape:connector-curvature="0" />
      <path
         d="m -3884.9876,-457.18731 -6.4257,0 0,10.98372 -11.6168,0 0,-10.98372 -22.822,0 0,-8.92625 22.0624,-27.34851 12.3764,0 0,27.66504 6.4257,0 0,8.60972 z m -18.0425,-8.60972 0,-17.02951 -13.7059,17.02951 13.7059,0 z"
         style="font-weight:bold;fill:#785959;fill-opacity:1"
         id="path10365"
         inkscape:connector-curvature="0" />
      <path
         d="m -3839.9449,-464.5942 q 0,4.39982 -1.3611,8.00831 -1.3294,3.60848 -3.5135,5.95083 -2.279,2.46896 -5.1595,3.7351 -2.8805,1.26613 -6.1724,1.26613 -3.0387,0 -5.1595,-0.66472 -2.1208,-0.63306 -4.3365,-1.80424 l 0,14.81378 -11.3952,0 0,-48.58793 11.3952,0 0,3.70345 q 2.6272,-2.08913 5.3494,-3.38692 2.7538,-1.29778 6.3307,-1.29778 6.6472,0 10.319,4.87462 3.7034,4.87462 3.7034,13.38937 z m -11.7434,0.22158 q 0,-5.19116 -1.7726,-7.53351 -1.7726,-2.34235 -5.6026,-2.34235 -1.6143,0 -3.3236,0.50646 -1.7093,0.4748 -3.2603,1.39275 l 0,17.88415 q 1.1395,0.44315 2.4373,0.56976 1.2978,0.12662 2.5639,0.12662 4.5264,0 6.7422,-2.62723 2.2157,-2.65889 2.2157,-7.97665 z"
         style="font-weight:bold;fill:#785959;fill-opacity:1"
         id="path10367"
         inkscape:connector-curvature="0" />
      <path
         d="m -3793.5727,-457.18731 -6.4256,0 0,10.98372 -11.6168,0 0,-10.98372 -22.8221,0 0,-8.92625 22.0624,-27.34851 12.3765,0 0,27.66504 6.4256,0 0,8.60972 z m -18.0424,-8.60972 0,-17.02951 -13.7059,17.02951 13.7059,0 z"
         style="font-weight:bold;fill:#785959;fill-opacity:1"
         id="path10369"
         inkscape:connector-curvature="0" />
      <path
         d="m -3749.9227,-446.3302 -11.4585,0 0,-17.63093 q 0,-2.15243 -0.2216,-4.27321 -0.2215,-2.15242 -0.7597,-3.16533 -0.633,-1.17118 -1.8675,-1.70928 -1.2028,-0.53811 -3.3869,-0.53811 -1.551,0 -3.1654,0.50645 -1.5826,0.50646 -3.4502,1.61432 l 0,25.19609 -11.3952,0 0,-35.54674 11.3952,0 0,3.92502 q 3.0388,-2.374 5.8243,-3.64014 2.8171,-1.26613 6.2357,-1.26613 5.7609,0 8.9895,3.35525 3.2603,3.35526 3.2603,10.03412 l 0,23.13862 z"
         style="font-weight:bold;fill:#785959;fill-opacity:1"
         id="path10371"
         inkscape:connector-curvature="0" />
      <path
         d="m -3686.1412,-463.99278 q 0,8.64137 -4.4314,13.6426 -4.4315,5.00123 -11.87,5.00123 -7.5019,0 -11.9334,-5.00123 -4.3998,-5.00123 -4.3998,-13.6426 0,-8.64137 4.3998,-13.64261 4.4315,-5.03288 11.9334,-5.03288 7.4385,0 11.87,5.03288 4.4314,5.00124 4.4314,13.64261 z m -6.1407,0 q 0,-6.86879 -2.6905,-10.19239 -2.6906,-3.35526 -7.4702,-3.35526 -4.843,0 -7.5335,3.35526 -2.6589,3.3236 -2.6589,10.19239 0,6.64721 2.6905,10.09742 2.6905,3.41857 7.5019,3.41857 4.748,0 7.4385,-3.38691 2.7222,-3.41857 2.7222,-10.12908 z"
         id="path10373"
         inkscape:connector-curvature="0" />
      <path
         d="m -3647.3341,-446.3302 -5.9508,0 0,-20.13155 q 0,-2.43731 -0.2849,-4.55808 -0.2849,-2.15243 -1.0446,-3.35526 -0.7913,-1.32944 -2.279,-1.96251 -1.4877,-0.66472 -3.8617,-0.66472 -2.4373,0 -5.0962,1.20283 -2.6589,1.20283 -5.0962,3.07038 l 0,26.39891 -5.9508,0 0,-35.35682 5.9508,0 0,3.92502 q 2.7855,-2.3107 5.7609,-3.60849 2.9754,-1.29778 6.1091,-1.29778 5.7293,0 8.7363,3.45021 3.0071,3.45022 3.0071,9.93916 l 0,22.9487 z"
         id="path10375"
         inkscape:connector-curvature="0" />
      <path
         d="m -3577.2219,-464.08774 q 0,8.76798 -5.1278,13.83252 -5.0962,5.03289 -14.339,5.03289 -9.2428,0 -14.3706,-5.03289 -5.0962,-5.06454 -5.0962,-13.83252 0,-8.83129 5.1278,-13.86418 5.1595,-5.03289 14.339,-5.03289 9.3061,0 14.3706,5.06454 5.0962,5.06454 5.0962,13.83253 z m -14.0224,8.64137 q 1.1078,-1.3611 1.6459,-3.2603 0.5698,-1.93086 0.5698,-5.31777 0,-3.13368 -0.5698,-5.25446 -0.5697,-2.12077 -1.5826,-3.38691 -1.0129,-1.29779 -2.4373,-1.83589 -1.4244,-0.53811 -3.0704,-0.53811 -1.646,0 -2.9438,0.44315 -1.2661,0.44314 -2.4373,1.77259 -1.0446,1.23448 -1.6776,3.38691 -0.6014,2.15243 -0.6014,5.41272 0,2.91211 0.5381,5.06454 0.5381,2.12078 1.5826,3.41857 1.0129,1.23448 2.4057,1.80424 1.4244,0.56976 3.2286,0.56976 1.5511,0 2.9438,-0.50645 1.4244,-0.53811 2.4057,-1.77259 z"
         style="font-weight:bold;fill:#785959;fill-opacity:1"
         id="path10377"
         inkscape:connector-curvature="0" />
      <path
         d="m -3532.0209,-464.5942 q 0,4.39982 -1.3611,8.00831 -1.3294,3.60848 -3.5135,5.95083 -2.279,2.46896 -5.1595,3.7351 -2.8804,1.26613 -6.1724,1.26613 -3.0387,0 -5.1595,-0.66472 -2.1208,-0.63306 -4.3365,-1.80424 l 0,14.81378 -11.3952,0 0,-48.58793 11.3952,0 0,3.70345 q 2.6272,-2.08913 5.3494,-3.38692 2.7539,-1.29778 6.3307,-1.29778 6.6472,0 10.319,4.87462 3.7034,4.87462 3.7034,13.38937 z m -11.7434,0.22158 q 0,-5.19116 -1.7726,-7.53351 -1.7725,-2.34235 -5.6026,-2.34235 -1.6143,0 -3.3236,0.50646 -1.7093,0.4748 -3.2603,1.39275 l 0,17.88415 q 1.1395,0.44315 2.4373,0.56976 1.2978,0.12662 2.5639,0.12662 4.5265,0 6.7422,-2.62723 2.2157,-2.65889 2.2157,-7.97665 z"
         style="font-weight:bold;fill:#785959;fill-opacity:1"
         id="path10379"
         inkscape:connector-curvature="0" />
      <path
         d="m -3488.7824,-461.99862 -26.0823,0 q 0.2532,4.17824 3.1653,6.39398 2.9438,2.21574 8.6414,2.21574 3.6085,0 6.9954,-1.29779 3.3869,-1.29779 5.3494,-2.7855 l 1.2661,0 0,9.14783 q -3.8617,1.55101 -7.2802,2.24739 -3.4186,0.69637 -7.5652,0.69637 -10.6988,0 -16.3965,-4.81131 -5.6976,-4.81131 -5.6976,-13.70591 0,-8.79964 5.3811,-13.92749 5.4127,-5.1595 14.8138,-5.1595 8.673,0 13.0412,4.39982 4.3681,4.36817 4.3681,12.59804 l 0,3.98833 z m -11.3319,-6.67886 q -0.095,-3.57683 -1.7725,-5.38108 -1.6777,-1.80424 -5.2229,-1.80424 -3.2919,0 -5.4127,1.70928 -2.1208,1.70929 -2.374,5.47604 l 14.7821,0 z"
         style="font-weight:bold;fill:#785959;fill-opacity:1"
         id="path10381"
         inkscape:connector-curvature="0" />
      <path
         d="m -3445.0374,-446.3302 -11.4585,0 0,-17.63093 q 0,-2.15243 -0.2216,-4.27321 -0.2216,-2.15242 -0.7597,-3.16533 -0.633,-1.17118 -1.8675,-1.70928 -1.2028,-0.53811 -3.3869,-0.53811 -1.551,0 -3.1654,0.50645 -1.5826,0.50646 -3.4502,1.61432 l 0,25.19609 -11.3952,0 0,-35.54674 11.3952,0 0,3.92502 q 3.0387,-2.374 5.8242,-3.64014 2.8172,-1.26613 6.2357,-1.26613 5.761,0 8.9896,3.35525 3.2603,3.35526 3.2603,10.03412 l 0,23.13862 z"
         style="font-weight:bold;fill:#785959;fill-opacity:1"
         id="path10383"
         inkscape:connector-curvature="0" />
      <path
         d="m -3416.1378,-445.3806 q -4.6531,0 -8.5148,-1.10787 -3.8301,-1.10787 -6.6789,-3.41856 -2.8171,-2.3107 -4.3681,-5.82422 -1.551,-3.51353 -1.551,-8.22988 0,-4.96958 1.6459,-8.57806 1.6777,-3.60849 4.6531,-5.98249 2.8804,-2.24739 6.6472,-3.29195 3.7667,-1.04456 7.8184,-1.04456 3.6401,0 6.7105,0.79133 3.0704,0.79133 5.7293,2.05747 l 0,9.71759 -1.6144,0 q -0.6647,-0.56977 -1.6143,-1.32945 -0.9179,-0.75968 -2.279,-1.4877 -1.2978,-0.69638 -2.8488,-1.13953 -1.5511,-0.4748 -3.6085,-0.4748 -4.5581,0 -7.0271,2.91211 -2.4373,2.88046 -2.4373,7.85004 0,5.12785 2.5006,7.78673 2.5323,2.65888 7.1537,2.65888 2.1524,0 3.8617,-0.4748 1.7409,-0.50645 2.8805,-1.17117 1.0762,-0.63307 1.8992,-1.32944 0.823,-0.69638 1.5193,-1.3611 l 1.6144,0 0,9.71759 q -2.6906,1.26613 -5.6343,1.99416 -2.9122,0.75968 -6.4573,0.75968 z"
         style="font-weight:bold;fill:#785959;fill-opacity:1"
         id="path10385"
         inkscape:connector-curvature="0" />
      <path
         d="m -3385.0226,-446.3302 -11.3952,0 0,-49.25265 11.3952,0 0,49.25265 z"
         style="font-weight:bold;fill:#785959;fill-opacity:1"
         id="path10387"
         inkscape:connector-curvature="0" />
      <path
         d="m -3362.8652,-446.3302 -11.3952,0 0,-35.54674 11.3952,0 0,35.54674 z m 0.3165,-40.61128 -12.0282,0 0,-8.64137 12.0282,0 0,8.64137 z"
         style="font-weight:bold;fill:#785959;fill-opacity:1"
         id="path10389"
         inkscape:connector-curvature="0" />
      <path
         d="m -3315.0053,-464.5942 q 0,4.39982 -1.3611,8.00831 -1.3294,3.60848 -3.5135,5.95083 -2.2791,2.46896 -5.1595,3.7351 -2.8805,1.26613 -6.1724,1.26613 -3.0388,0 -5.1595,-0.66472 -2.1208,-0.63306 -4.3365,-1.80424 l 0,14.81378 -11.3953,0 0,-48.58793 11.3953,0 0,3.70345 q 2.6272,-2.08913 5.3494,-3.38692 2.7538,-1.29778 6.3307,-1.29778 6.6472,0 10.319,4.87462 3.7034,4.87462 3.7034,13.38937 z m -11.7434,0.22158 q 0,-5.19116 -1.7726,-7.53351 -1.7726,-2.34235 -5.6026,-2.34235 -1.6144,0 -3.3236,0.50646 -1.7093,0.4748 -3.2603,1.39275 l 0,17.88415 q 1.1395,0.44315 2.4373,0.56976 1.2978,0.12662 2.5639,0.12662 4.5264,0 6.7422,-2.62723 2.2157,-2.65889 2.2157,-7.97665 z"
         style="font-weight:bold;fill:#785959;fill-opacity:1"
         id="path10391"
         inkscape:connector-curvature="0" />
      <path
         d="m -3285.2511,-455.60464 0,-7.40689 q -2.3107,0.18992 -5.0013,0.53811 -2.6905,0.31653 -4.0832,0.75968 -1.7093,0.53811 -2.6273,1.58267 -0.8863,1.01291 -0.8863,2.69054 0,1.10786 0.19,1.80424 0.1899,0.69637 0.9496,1.32944 0.728,0.63307 1.7409,0.9496 1.0129,0.28488 3.1653,0.28488 1.7093,0 3.4502,-0.69637 1.7726,-0.69638 3.1021,-1.8359 z m 0,5.50769 q -0.918,0.69637 -2.2791,1.67763 -1.3611,0.98125 -2.5639,1.55101 -1.6776,0.75968 -3.4819,1.10787 -1.8042,0.37984 -3.9566,0.37984 -5.0646,0 -8.4831,-3.13368 -3.4186,-3.13369 -3.4186,-8.00831 0,-3.89336 1.7409,-6.36233 1.741,-2.46896 4.938,-3.89336 3.1653,-1.4244 7.85,-2.02582 4.6847,-0.60141 9.7176,-0.88629 l 0,-0.18992 q 0,-2.94376 -2.4057,-4.05163 -2.4056,-1.13952 -7.0903,-1.13952 -2.8172,0 -6.0142,1.0129 -3.197,0.98126 -4.5897,1.51937 l -1.0446,0 0,-8.57807 q 1.8043,-0.4748 5.8559,-1.10787 4.0833,-0.66472 8.1666,-0.66472 9.7176,0 14.0224,3.00707 4.3365,2.97542 4.3365,9.3694 l 0,24.18318 -11.3002,0 0,-3.76675 z"
         style="font-weight:bold;fill:#785959;fill-opacity:1"
         id="path10393"
         inkscape:connector-curvature="0" />
      <path
         d="m -3237.8344,-471.01983 -1.0129,0 q -0.728,-0.25323 -2.3424,-0.37984 -1.6143,-0.12662 -2.6905,-0.12662 -2.4373,0 -4.3049,0.31654 -1.8675,0.31653 -4.0199,1.07621 l 0,23.80334 -11.3952,0 0,-35.54674 11.3952,0 0,5.22281 q 3.7667,-3.22865 6.5522,-4.27321 2.7855,-1.07621 5.1279,-1.07621 0.6014,0 1.3611,0.0317 0.7596,0.0317 1.3294,0.095 l 0,10.85711 z"
         style="font-weight:bold;fill:#785959;fill-opacity:1"
         id="path10395"
         inkscape:connector-curvature="0" />
      <path
         d="m -3208.7133,-446.64673 q -1.8359,0.4748 -3.8933,0.72802 -2.0575,0.28488 -5.0329,0.28488 -6.6472,0 -9.9075,-2.69053 -3.2287,-2.69054 -3.2287,-9.21113 l 0,-16.61803 -4.6847,0 0,-7.72342 4.6847,0 0,-10.16073 11.3952,0 0,10.16073 10.6672,0 0,7.72342 -10.6672,0 0,12.59805 q 0,1.86755 0.032,3.26029 0.032,1.39275 0.5064,2.50062 0.4432,1.10787 1.5511,1.77259 1.1395,0.63307 3.2919,0.63307 0.8863,0 2.3107,-0.37984 1.4561,-0.37984 2.0258,-0.69638 l 0.9496,0 0,7.81839 z"
         style="font-weight:bold;fill:#785959;fill-opacity:1"
         id="path10397"
         inkscape:connector-curvature="0" />
      <path
         d="m -3189.6896,-446.3302 -11.8384,0 0,-12.43978 11.8384,0 0,12.43978 z"
         style="font-weight:bold;fill:#785959;fill-opacity:1"
         id="path10399"
         inkscape:connector-curvature="0" />
      <path
         d="m -3142.1779,-464.08774 q 0,8.76798 -5.1279,13.83252 -5.0962,5.03289 -14.339,5.03289 -9.2428,0 -14.3706,-5.03289 -5.0962,-5.06454 -5.0962,-13.83252 0,-8.83129 5.1278,-13.86418 5.1595,-5.03289 14.339,-5.03289 9.3061,0 14.3707,5.06454 5.0962,5.06454 5.0962,13.83253 z m -14.0225,8.64137 q 1.1079,-1.3611 1.646,-3.2603 0.5697,-1.93086 0.5697,-5.31777 0,-3.13368 -0.5697,-5.25446 -0.5698,-2.12077 -1.5827,-3.38691 -1.0129,-1.29779 -2.4373,-1.83589 -1.4244,-0.53811 -3.0704,-0.53811 -1.6459,0 -2.9437,0.44315 -1.2662,0.44314 -2.4373,1.77259 -1.0446,1.23448 -1.6777,3.38691 -0.6014,2.15243 -0.6014,5.41272 0,2.91211 0.5381,5.06454 0.5381,2.12078 1.5827,3.41857 1.0129,1.23448 2.4056,1.80424 1.4244,0.56976 3.2287,0.56976 1.551,0 2.9438,-0.50645 1.4244,-0.53811 2.4056,-1.77259 z"
         style="font-weight:bold;fill:#785959;fill-opacity:1"
         id="path10401"
         inkscape:connector-curvature="0" />
      <path
         d="m -3108.3088,-471.01983 -1.0129,0 q -0.728,-0.25323 -2.3423,-0.37984 -1.6143,-0.12662 -2.6906,-0.12662 -2.4373,0 -4.3048,0.31654 -1.8676,0.31653 -4.02,1.07621 l 0,23.80334 -11.3952,0 0,-35.54674 11.3952,0 0,5.22281 q 3.7668,-3.22865 6.5522,-4.27321 2.7855,-1.07621 5.1279,-1.07621 0.6014,0 1.3611,0.0317 0.7597,0.0317 1.3294,0.095 l 0,10.85711 z"
         style="font-weight:bold;fill:#785959;fill-opacity:1"
         id="path10403"
         inkscape:connector-curvature="0" />
      <path
         d="m -3067.3493,-450.41349 q 0,5.00124 -1.4244,8.4198 -1.4244,3.41857 -3.9884,5.34942 -2.5639,1.96251 -6.204,2.81715 -3.6085,0.8863 -8.1666,0.8863 -3.7034,0 -7.3119,-0.44315 -3.5769,-0.44315 -6.2041,-1.07621 l 0,-8.8946 1.3928,0 q 2.0891,0.82298 5.0962,1.48771 3.007,0.69637 5.381,0.69637 3.1654,0 5.1279,-0.60141 1.9941,-0.56977 3.0387,-1.64598 0.9813,-1.01291 1.4244,-2.59558 0.4431,-1.58267 0.4431,-3.7984 l 0,-0.66472 q -2.0574,1.67763 -4.558,2.65888 -2.5007,0.98126 -5.571,0.98126 -7.4702,0 -11.5219,-4.49478 -4.0516,-4.49478 -4.0516,-13.67426 0,-4.39982 1.2345,-7.59681 1.2345,-3.19699 3.4819,-5.57099 2.0891,-2.21574 5.1278,-3.45022 3.0704,-1.23448 6.2674,-1.23448 2.8804,0 5.2228,0.69637 2.374,0.66472 4.3048,1.86755 l 0.4115,-1.58267 11.0471,0 0,31.46345 z m -11.3953,-7.122 0,-16.11157 q -0.9812,-0.4115 -2.4056,-0.63307 -1.4244,-0.25323 -2.5639,-0.25323 -4.4948,0 -6.7422,2.59558 -2.2474,2.56392 -2.2474,7.18532 0,5.12784 1.8992,7.15366 1.9309,2.02581 5.6976,2.02581 1.7093,0 3.3553,-0.5381 1.646,-0.53811 3.007,-1.4244 z"
         style="font-weight:bold;fill:#785959;fill-opacity:1"
         id="path10405"
         inkscape:connector-curvature="0" />
    </g>
  </g>
  <metadata
     id="metadata4167">
    <rdf:RDF>
      <cc:Work>
        <dc:format>image/svg+xml</dc:format>
        <dc:type
           rdf:resource="http://purl.org/dc/dcmitype/StillImage" />
        <cc:license
           rdf:resource="http://creativecommons.org/publicdomain/zero/1.0/" />
        <dc:publisher>
          <cc:Agent
             rdf:about="http://openclipart.org/">
            <dc:title></dc:title>
          </cc:Agent>
        </dc:publisher>
        <dc:title></dc:title>
        <dc:date></dc:date>
        <dc:description></dc:description>
        <dc:source></dc:source>
        <dc:creator>
          <cc:Agent>
            <dc:title>j4p4n</dc:title>
          </cc:Agent>
        </dc:creator>
        <dc:subject>
          <rdf:Bag />
        </dc:subject>
      </cc:Work>
      <cc:License
         rdf:about="http://creativecommons.org/publicdomain/zero/1.0/">
        <cc:permits
           rdf:resource="http://creativecommons.org/ns#Reproduction" />
        <cc:permits
           rdf:resource="http://creativecommons.org/ns#Distribution" />
        <cc:permits
           rdf:resource="http://creativecommons.org/ns#DerivativeWorks" />
      </cc:License>
    </rdf:RDF>
  </metadata>
</svg>
