<svg width="64" height="64" viewBox="0 0 64 64" fill="none" xmlns="http://www.w3.org/2000/svg">
<rect width="64" height="64" rx="32" fill="#222222"/>
<path d="M32.1355 36.9515C34.8283 36.9515 37.0113 34.7686 37.0113 32.0758C37.0113 29.383 34.8283 27.2 32.1355 27.2C29.4427 27.2 27.2598 29.383 27.2598 32.0758C27.2598 34.7686 29.4427 36.9515 32.1355 36.9515Z" fill="white"/>
<path fill-rule="evenodd" clip-rule="evenodd" d="M32.1354 22.1624C38.6818 22.1624 44.7632 23.1018 49.3485 24.6803C54.8732 26.5823 58.27 29.4653 58.27 32.0758C58.27 34.7962 54.6701 37.8589 48.7373 39.8246C44.252 41.3107 38.3496 42.0864 32.1354 42.0864C25.7642 42.0864 19.731 41.3583 15.1952 39.8083C9.45647 37.8468 6 34.7444 6 32.0758C6 29.4865 9.24324 26.6258 14.6903 24.7267C19.2927 23.1221 25.5243 22.1624 32.1346 22.1624H32.1354Z" stroke="white" stroke-width="2.5"/>
<path fill-rule="evenodd" clip-rule="evenodd" d="M23.5029 27.1478C26.7733 21.4769 30.625 16.678 34.2832 13.4945C38.6908 9.65875 42.8852 8.15658 45.1466 9.46058C47.5032 10.8196 48.3579 15.4683 47.0969 21.5895C46.1444 26.2175 43.8669 31.7179 40.7624 37.1011C37.5794 42.6203 33.9348 47.483 30.3264 50.637C25.7604 54.6284 21.346 56.0728 19.0344 54.7397C16.7912 53.4471 15.9334 49.2076 17.0095 43.5402C17.9187 38.7516 20.2005 32.874 23.5018 27.1477L23.5029 27.1478Z" stroke="white" stroke-width="2.5"/>
<path fill-rule="evenodd" clip-rule="evenodd" d="M23.514 37.1156C20.2343 31.4512 18.0014 25.7165 17.0693 20.9573C15.9473 15.223 16.7406 10.8388 18.9999 9.531C21.3542 8.16801 25.8086 9.7491 30.482 13.8987C34.0154 17.036 37.6437 21.7553 40.7572 27.1334C43.9493 32.6473 46.3417 38.2335 47.2724 42.9348C48.4501 48.8841 47.497 53.4298 45.1874 54.7668C42.9465 56.0641 38.8458 54.6906 34.4732 50.9277C30.7787 47.7486 26.826 42.8364 23.514 37.1155V37.1156Z" stroke="white" stroke-width="2.5"/>
</svg>